Coordinates
version=1
nRows=19
nColumns=24
inDegrees=yes

Units are S.I. units (second, meters, Newtons, ...)
Angles are in degrees.

endheader
time	pelvis_tilt	pelvis_list	pelvis_rotation	pelvis_tx	pelvis_ty	pelvis_tz	hip_flexion_r	hip_adduction_r	hip_rotation_r	knee_angle_r	ankle_angle_r	subtalar_angle_r	mtp_angle_r	hip_flexion_l	hip_adduction_l	hip_rotation_l	knee_angle_l	ankle_angle_l	subtalar_angle_l	mtp_angle_l	lumbar_extension	lumbar_bending	lumbar_rotation
      8.18000000	     45.38664101	     -4.87063828	     -0.98912417	      0.57551251	      1.08368029	     -0.34096327	     26.98312467	     -6.40340708	     -8.13029597	    -74.36743885	    -27.47382164	    -18.84327234	      0.00000000	     27.14537525	    -20.67119271	     -0.49029358	    -93.08144003	    -29.27425928	      1.97381782	      0.00000000	      0.00000000	      0.00000000	      0.00000000
      8.19000000	     45.37826978	     -4.87007575	     -0.99271930	      0.57552435	      1.08368441	     -0.34095042	     26.99325651	     -6.40357842	     -8.13371638	    -74.37252460	    -27.47831370	    -18.85226464	      0.00000000	     27.15404845	    -20.67473014	     -0.48810200	    -93.12388974	    -29.27207644	      1.97144195	      0.00000000	      0.00000000	      0.00000000	      0.00000000
      8.20000000	     45.36867185	     -4.86686975	     -0.99508514	      0.57553516	      1.08369223	     -0.34093505	     27.00348825	     -6.40667704	     -8.13859521	    -74.37600535	    -27.48024276	    -18.86140709	      0.00000000	     27.16222495	    -20.66935918	     -0.50743859	    -93.09271683	    -29.26966011	      1.99143839	      0.00000000	      0.00000000	      0.00000000	      0.00000000
      8.21000000	     45.35674098	     -4.86075520	     -0.99572653	      0.57555086	      1.08370516	     -0.34090738	     27.01416771	     -6.41185270	     -8.14462059	    -74.37731173	    -27.48038560	    -18.87067234	      0.00000000	     27.17029661	    -20.65552164	     -0.54852279	    -92.98892873	    -29.26804250	      2.03392863	      0.00000000	      0.00000000	      0.00000000	      0.00000000
      8.22000000	     45.34218709	     -4.85189202	     -0.99509053	      0.57557048	      1.08373454	     -0.34085870	     27.02565622	     -6.41840590	     -8.15102879	    -74.37581149	    -27.47974008	    -18.87996498	      0.00000000	     27.17807566	    -20.63451973	     -0.61126087	    -92.81423208	    -29.26773613	      2.09535032	      0.00000000	      0.00000000	      0.00000000	      0.00000000
      8.23000000	     45.32591161	     -4.84114020	     -0.99425206	      0.57558701	      1.08378205	     -0.34079723	     27.03821769	     -6.42588783	     -8.15675321	    -74.37126934	    -27.47949521	    -18.88894615	      0.00000000	     27.18535184	    -20.60773263	     -0.69533283	    -92.57074144	    -29.26861704	      2.16867746	      0.00000000	      0.00000000	      0.00000000	      0.00000000
      8.24000000	     45.30938484	     -4.82954934	     -0.99379717	      0.57559321	      1.08383002	     -0.34074444	     27.05162116	     -6.43391123	     -8.16101580	    -74.36406152	    -27.48089027	    -18.89688937	      0.00000000	     27.19217683	    -20.57594352	     -0.80054247	    -92.26109961	    -29.27002557	      2.24445895	      0.00000000	      0.00000000	      0.00000000	      0.00000000
      8.25000000	     45.29368835	     -4.81756054	     -0.99283129	      0.57558725	      1.08386123	     -0.34071136	     27.06484075	     -6.44205774	     -8.16396386	    -74.35494597	    -27.48485784	    -18.90270347	      0.00000000	     27.19887993	    -20.53894059	     -0.92701389	    -91.88882686	    -29.27111489	      2.31254013	      0.00000000	      0.00000000	      0.00000000	      0.00000000
      8.26000000	     45.27932815	     -4.80512813	     -0.98911168	      0.57557179	      1.08387553	     -0.34068775	     27.07640387	     -6.45034799	     -8.16678734	    -74.34456064	    -27.49155596	    -18.90517928	      0.00000000	     27.20590142	    -20.49542321	     -1.07494326	    -91.45820133	    -29.27137404	      2.36414510	      0.00000000	      0.00000000	      0.00000000	      0.00000000
      8.27000000	     45.26679196	     -4.79258168	     -0.98031726	      0.57554859	      1.08388547	     -0.34065962	     27.08519708	     -6.45994781	     -8.17113960	    -74.33309452	    -27.50009702	    -18.90337382	      0.00000000	     27.21344422	    -20.44348742	     -1.24389333	    -90.97347709	    -29.27115193	      2.39383492	      0.00000000	      0.00000000	      0.00000000	      0.00000000
      8.28000000	     45.25693000	     -4.78082274	     -0.96552517	      0.57551703	      1.08390225	     -0.34063898	     27.09084684	     -6.47304131	     -8.17825255	    -74.32040118	    -27.50871588	    -18.89696788	      0.00000000	     27.22110972	    -20.38173822	     -1.43217020	    -90.43786143	    -29.27191884	      2.40079493	      0.00000000	      0.00000000	      0.00000000	      0.00000000
      8.29000000	     45.25072350	     -4.77053887	     -0.94580835	      0.57547437	      1.08392146	     -0.34066841	     27.09337823	     -6.49155199	     -8.18826208	    -74.30633440	    -27.51532775	    -18.88646737	      0.00000000	     27.22769438	    -20.31046654	     -1.63707846	    -89.85288897	    -29.27601570	      2.38898351	      0.00000000	      0.00000000	      0.00000000	      0.00000000
      8.30000000	     45.24886180	     -4.76149597	     -0.92371831	      0.57541521	      1.08392878	     -0.34077283	     27.09256993	     -6.51561544	     -8.20011079	    -74.29098235	    -27.51825463	    -18.87317582	      0.00000000	     27.23136168	    -20.23200715	     -1.85628124	    -89.21862967	    -29.28583570	      2.36597665	      0.00000000	      0.00000000	      0.00000000	      0.00000000
      8.31000000	     45.25178619	     -4.75265602	     -0.90241506	      0.57533991	      1.08392411	     -0.34091024	     27.08763372	     -6.54299748	     -8.21208103	    -74.27459230	    -27.51688216	    -18.85892899	      0.00000000	     27.23022106	    -20.14996053	     -2.08919857	    -88.53455876	    -29.30271150	      2.34086132	      0.00000000	      0.00000000	      0.00000000	      0.00000000
      8.32000000	     45.26002619	     -4.74291477	     -0.88495741	      0.57526143	      1.08392650	     -0.34101220	     27.07763285	     -6.57005134	     -8.22250655	    -74.25715873	    -27.51203581	    -18.84565870	      0.00000000	     27.22272069	    -20.06795049	     -2.33696837	    -87.80068972	    -29.32602066	      2.32197157	      0.00000000	      0.00000000	      0.00000000	      0.00000000
      8.33000000	     45.27368021	     -4.73193905	     -0.87333940	      0.57518782	      1.08395071	     -0.34106320	     27.06213221	     -6.59346664	     -8.23024853	    -74.23811333	    -27.50593461	    -18.83490202	      0.00000000	     27.20730666	    -19.98854571	     -2.60111873	    -87.01877902	    -29.35294624	      2.31527206	      0.00000000	      0.00000000	      0.00000000	      0.00000000
      8.34000000	     45.29149279	     -4.72037981	     -0.86748847	      0.57511080	      1.08399617	     -0.34109047	     27.04125127	     -6.61138979	     -8.23495167	    -74.21662810	    -27.50161451	    -18.82742780	      0.00000000	     27.18237396	    -19.91258737	     -2.88235251	    -86.19285861	    -29.37902321	      2.32380995	      0.00000000	      0.00000000	      0.00000000	      0.00000000
      8.35000000	     45.31123802	     -4.70909633	     -0.86541659	      0.57502872	      1.08406008	     -0.34110026	     27.01528306	     -6.62352775	     -8.23705099	    -74.19231758	    -27.50182603	    -18.82316334	      0.00000000	     27.14746247	    -19.83929835	     -3.18000878	    -85.32846662	    -29.39928353	      2.34819493	      0.00000000	      0.00000000	      0.00000000	      0.00000000
      8.36000000	     45.33114306	     -4.69815712	     -0.86479603	      0.57495599	      1.08414266	     -0.34107544	     26.98467448	     -6.63083657	     -8.23739968	    -74.16561417	    -27.50780453	    -18.82143433	      0.00000000	     27.10437762	    -19.76718753	     -3.49185553	    -84.43147439	    -29.40954921	      2.38767795	      0.00000000	      0.00000000	      0.00000000	      0.00000000
